<?xml version="1.0" encoding="UTF-8" standalone="no"?>
<svg
   version="1.1"
   id="Layer_1"
   x="0px"
   y="0px"
   width="400"
   viewBox="55 0 400 512"
   enable-background="new 0 0 512 512"
   xml:space="preserve"
   sodipodi:docname="css.svg"
   height="512"
   inkscape:version="1.2.1 (9c6d41e, 2022-07-14)"
   xmlns:inkscape="http://www.inkscape.org/namespaces/inkscape"
   xmlns:sodipodi="http://sodipodi.sourceforge.net/DTD/sodipodi-0.dtd"
   xmlns="http://www.w3.org/2000/svg"
   xmlns:svg="http://www.w3.org/2000/svg"><defs
   id="defs13199" /><sodipodi:namedview
   id="namedview13197"
   pagecolor="#ffffff"
   bordercolor="#000000"
   borderopacity="0.25"
   inkscape:showpageshadow="2"
   inkscape:pageopacity="0.0"
   inkscape:pagecheckerboard="0"
   inkscape:deskcolor="#d1d1d1"
   showgrid="false"
   inkscape:zoom="1.84375"
   inkscape:cx="219.9322"
   inkscape:cy="256"
   inkscape:window-width="2560"
   inkscape:window-height="1334"
   inkscape:window-x="3168"
   inkscape:window-y="383"
   inkscape:window-maximized="1"
   inkscape:current-layer="Layer_1" />

<path
   fill="#e8edf3"
   opacity="1"
   stroke="none"
   d="m 69.15831,367.90738 c -0.05283,-1.8288 -0.151772,-3.65756 -0.151894,-5.48636 C 68.9991,250.33205 69.068848,138.24297 68.865562,26.154358 68.849739,17.429617 77.267693,8.922201 86.103096,8.934034 169.21201,9.045354 252.32112,8.993755 335.43014,9.045271 c 1.89472,0.00117 3.78907,0.659828 6.15738,1.415515 8.37165,6.508571 9.86585,14.774688 9.5369,24.251963 -0.5072,14.614243 -0.20926,29.259755 -0.10425,43.890934 0.0964,13.439248 11.09503,24.365287 24.46323,24.415117 14.13293,0.0527 28.27572,0.33647 42.39621,-0.0849 10.98633,-0.32781 20.91034,0.72342 26.47726,11.95942 0.0489,0.0988 0.3071,0.094 0.46756,0.13751 0.0583,1.33008 0.16764,2.66015 0.16764,3.99023 -3.1e-4,82.65618 -0.01,165.31233 -0.54181,248.44551 -45.49613,0.48438 -90.46839,0.50287 -135.44062,0.4968 -79.95044,-0.0108 -159.90089,-0.0365 -239.85133,-0.056 M 351.00269,248.00832 c 0.42327,-5.46485 3.54025,-7.73377 8.84982,-8.11219 4.55514,-0.32464 8.26419,-4.63041 8.11459,-8.65965 -0.14221,-3.83186 -3.86523,-7.67664 -7.97885,-8.23976 -6.15921,-0.84314 -8.9632,-4.01921 -8.98212,-10.40286 -0.041,-13.82869 0.0954,-27.65874 -0.0517,-41.486 -0.13672,-12.85035 -11.41065,-24.5431 -23.89646,-25.08958 -5.65521,-0.2475 -9.62802,2.70399 -10.04907,7.46568 -0.44281,5.00835 2.17841,8.65137 6.81723,9.47466 8.00717,1.42109 10.1315,3.86557 10.1496,11.87951 0.0301,13.32889 -0.36011,26.67391 0.21283,39.97826 0.2034,4.72362 2.82419,9.31529 4.08017,14.0367 0.43204,1.62399 0.40991,3.54288 0.007,5.18266 -1.2814,5.21808 -3.85156,10.32175 -4.0918,15.55373 -0.60308,13.1347 -0.15097,26.31582 -0.22284,39.47778 -0.0365,6.68884 -2.64804,9.64938 -9.22811,10.8978 -5.77518,1.09567 -8.64148,4.85922 -7.70093,10.11142 0.80093,4.47259 6.19995,7.64853 11.28595,6.63891 14.51037,-2.88043 22.65765,-12.86847 22.67154,-27.82242 0.0124,-13.32894 0.005,-26.65789 0.0129,-40.88465 M 168.44861,156.05234 c -3.82007,5.11192 -5.53603,10.82989 -5.47756,17.23622 0.12168,13.33214 0.0839,26.66643 0.009,39.99927 -0.0317,5.66307 -3.08458,8.93991 -8.66779,9.70272 -4.48802,0.61319 -8.25874,4.45693 -8.28729,8.44774 -0.0289,4.04619 3.71512,7.89089 8.31869,8.54229 6.64971,0.94093 8.63571,3.12123 8.65183,9.73451 0.0333,13.66647 -0.0789,27.33392 0.0396,40.99948 0.11949,13.77698 10.4109,24.92584 23.95718,26.2142 4.56877,0.43451 9.43524,-3.06888 9.9879,-7.19034 0.67819,-5.05743 -1.98918,-8.73336 -7.05949,-9.72879 -7.75011,-1.52151 -9.87627,-4.00891 -9.89583,-11.79055 -0.0315,-12.49982 -0.10454,-25.00083 0.0316,-37.49927 0.067,-6.14949 -0.87781,-11.85929 -4.50837,-17.03742 -0.72045,-1.02754 -0.87587,-3.3527 -0.20039,-4.30662 3.53526,-4.99262 4.74822,-10.46767 4.69977,-16.46585 -0.105,-12.99906 -0.0852,-25.9999 -0.009,-38.99936 0.0414,-7.01524 2.72091,-9.95288 9.56808,-10.92505 4.78514,-0.67938 7.38925,-3.64938 7.39986,-8.43956 0.0131,-5.94133 -5.2596,-9.63919 -11.9972,-8.35017 -6.43271,1.23071 -11.85826,4.23768 -16.56135,9.85655 m 85.05285,92.28113 c -1.66328,4.1e-4 -3.32667,-0.0113 -4.98983,0.003 -7.94017,0.0695 -10.33853,2.04428 -11.68232,9.82968 -1.66664,9.65576 -3.31883,19.31498 -4.8507,28.99271 -1.12284,7.0935 0.7908,10.74716 6.09773,12.21497 9.56009,2.6441 18.6862,0.4027 20.79317,-5.57367 4.02975,-11.43027 7.81265,-22.95301 11.42233,-34.52338 1.56052,-5.00203 -1.27164,-9.48178 -6.40778,-10.43363 -3.0693,-0.56883 -6.28164,-0.36567 -10.3826,-0.50997 m 11.13791,-35.8285 c 8.42542,-5.29924 11.50248,-13.47018 8.16748,-21.68827 -3.02902,-7.46415 -11.38348,-11.98818 -19.05664,-10.31943 -9.83136,2.13811 -15.8388,11.73887 -13.2346,21.15085 2.81287,10.16616 12.49951,14.80765 24.12376,10.85685 z"
   id="path13176"
   style="stroke:#000000;stroke-width:6;stroke-dasharray:none;stroke-opacity:1" />
<path
   fill="#4aba5e"
   opacity="1"
   stroke="none"
   d="m 69.095428,368.37744 c 80.013322,-0.45056 159.963772,-0.42486 239.914212,-0.41403 44.97223,0.006 89.94449,-0.0124 135.37445,-0.0382 0.50965,40.62921 0.70786,81.27753 0.48691,121.92356 -0.0429,7.89193 -6.93731,14.16583 -15.46179,15.12884 -1.15161,0.1301 -2.33038,0.021 -3.49658,0.021 -112.62168,1.8e-4 -225.24358,-0.0963 -337.864611,0.17087 -9.722267,0.0231 -19.44976,-7.6077 -19.268875,-19.37259 0.599236,-38.97522 0.243042,-77.96512 0.316284,-117.4195 M 193.46677,393.4026 c -19.76268,1.68716 -30.37522,13.18738 -30.39743,32.95483 -0.009,7.6579 -0.20438,15.32303 0.0588,22.97202 0.3967,11.52759 5.56961,20.43298 15.7736,26.00366 16.51133,9.01407 37.41326,0.29269 42.7004,-17.66183 2.30127,-7.81482 -2.26499,-14.00617 -9.38947,-12.68027 -4.17804,0.77756 -5.80276,3.92099 -7.07461,7.55716 -2.22986,6.37521 -7.86235,10.02298 -13.72051,9.14547 -6.35763,-0.95233 -11.0121,-5.94244 -11.20923,-12.73953 -0.246,-8.48294 -0.23628,-16.98343 -3e-4,-25.46695 0.18699,-6.7225 4.68881,-11.72305 10.68078,-12.57254 6.75112,-0.95715 11.81568,2.19736 14.28403,8.89691 2.43166,6.59989 6.32437,9.0961 11.41441,7.31952 5.28621,-1.84503 7.07451,-6.60275 4.64606,-13.27234 -4.56831,-12.54641 -13.73019,-19.17544 -27.76655,-20.45611 m 147.49765,55.43643 c 2.09936,5.61591 1.17477,9.30402 -2.94184,11.73407 -4.04422,2.38727 -7.80288,1.37692 -11.71374,-3.14871 -3.66422,-4.2403 -8.44538,-5.07514 -12.27664,-2.14365 -3.8509,2.94641 -4.35248,7.85791 -1.27137,12.4484 6.02713,8.97973 17.46457,13.1029 28.11652,10.1362 10.31467,-2.87284 17.82748,-12.32407 18.32352,-23.05143 0.66894,-14.46752 -9.10593,-25.4468 -23.62635,-27.07833 -2.91708,-0.32779 -6.23941,-1.61713 -8.34185,-3.5734 -3.28507,-3.05667 -2.32215,-8.55133 1.21289,-11.50049 3.84655,-3.20913 8.71225,-2.41656 12.64764,2.06018 4.12424,4.69156 8.53806,5.49298 12.58002,2.28424 4.03918,-3.20648 4.35492,-7.95379 0.85476,-12.8522 -6.22796,-8.71597 -17.59042,-12.58865 -27.92553,-9.51785 -11.45151,3.4025 -19.30768,14.52487 -18.4057,26.05789 0.99801,12.76105 10.25982,22.08713 23.39169,24.07968 3.08353,0.4679 5.97128,2.22583 9.37598,4.0654 m -69.63852,-1.72613 c 3.64456,5.22793 3.4548,9.56561 -0.55735,12.74057 -4.11138,3.25351 -8.3789,2.48956 -12.58496,-2.2529 -3.99926,-4.50919 -8.77757,-5.32538 -12.66932,-2.16404 -3.90964,3.17585 -4.22564,8.13672 -0.59681,12.89579 5.78498,7.58676 13.56548,11.35894 23.04095,10.36789 10.04608,-1.05069 17.36956,-6.45401 21.23126,-15.92981 6.6185,-16.24048 -4.15961,-33.12406 -22.16932,-34.92835 -5.94833,-0.59591 -9.26962,-3.00967 -9.85501,-7.41238 -0.5448,-4.09748 1.08225,-7.34097 4.88944,-8.91834 4.64722,-1.92541 8.21499,-0.19333 11.25046,3.74582 3.251,4.21893 8.02288,4.7826 11.89041,1.94541 3.79462,-2.78367 4.50085,-7.53852 1.77881,-11.97519 -5.612,-9.14698 -17.80585,-13.7461 -28.38434,-10.70563 -11.53168,3.31448 -19.04242,13.79047 -18.58893,25.9278 0.43132,11.54415 9.05872,21.39208 20.67413,23.72674 3.3732,0.67798 6.69446,1.61429 10.65058,2.93662 z"
   id="path13178"
   style="stroke:#000000;stroke-width:6;stroke-dasharray:none;stroke-opacity:1" />
<path
   fill="#c0cfdd"
   opacity="1"
   stroke="none"
   d="m 444.91583,114.63013 c -0.25186,0.35719 -0.51001,0.36202 -0.55896,0.26323 -5.56692,-11.236 -15.49093,-12.28723 -26.47726,-11.95942 -14.12049,0.42133 -28.26328,0.13753 -42.39621,0.0849 -13.3682,-0.0498 -24.36679,-10.975869 -24.46323,-24.415117 -0.10501,-14.631179 -0.40295,-29.276691 0.10425,-43.890934 0.32895,-9.477275 -1.16525,-17.743392 -9.11386,-24.182119 8.34064,0.03531 15.08114,4.223918 20.73132,9.799757 23.78415,23.471314 47.37979,47.13493 70.91251,70.85902 6.2832,6.334343 9.83276,14.243483 11.26144,23.440723 z"
   id="path13180"
   style="stroke:#000000;stroke-width:6;stroke-dasharray:none;stroke-opacity:1" />
<path
   fill="#bfcedd"
   opacity="1"
   stroke="none"
   d="m 350.99982,248.45721 c -0.005,13.77787 0.002,27.10682 -0.01,40.43576 -0.0139,14.95395 -8.16117,24.94199 -22.67154,27.82242 -5.086,1.00962 -10.48502,-2.16632 -11.28595,-6.63891 -0.94055,-5.2522 1.92575,-9.01575 7.70093,-10.11142 6.58007,-1.24842 9.19162,-4.20896 9.22811,-10.8978 0.0719,-13.16196 -0.38024,-26.34308 0.22284,-39.47778 0.24024,-5.23198 2.8104,-10.33565 4.0918,-15.55373 0.40268,-1.63978 0.42481,-3.55867 -0.007,-5.18266 -1.25598,-4.72141 -3.87677,-9.31308 -4.08017,-14.0367 -0.57294,-13.30435 -0.18271,-26.64937 -0.21283,-39.97826 -0.0181,-8.01394 -2.14243,-10.45842 -10.1496,-11.87951 -4.63882,-0.82329 -7.26004,-4.46631 -6.81723,-9.47466 0.42105,-4.76169 4.39386,-7.71318 10.04907,-7.46568 12.48581,0.54648 23.75974,12.23923 23.89646,25.08958 0.14709,13.82726 0.0107,27.65731 0.0517,41.486 0.0189,6.38365 2.82291,9.55972 8.98212,10.40286 4.11362,0.56312 7.83664,4.4079 7.97885,8.23976 0.1496,4.02924 -3.55945,8.33501 -8.11459,8.65965 -5.30957,0.37842 -8.42655,2.64734 -8.85269,8.56108 z"
   id="path13182" />
<path
   fill="#bfcedd"
   opacity="1"
   stroke="none"
   d="m 168.7016,155.79167 c 4.4501,-5.3582 9.87565,-8.36517 16.30836,-9.59588 6.7376,-1.28902 12.01035,2.40884 11.9972,8.35017 -0.0106,4.79018 -2.61472,7.76018 -7.39986,8.43956 -6.84717,0.97217 -9.52667,3.90981 -9.56808,10.92505 -0.0767,12.99946 -0.0965,26.0003 0.009,38.99936 0.0485,5.99818 -1.16451,11.47323 -4.69977,16.46585 -0.67548,0.95392 -0.52006,3.27908 0.20039,4.30662 3.63056,5.17813 4.57535,10.88793 4.50837,17.03742 -0.13616,12.49844 -0.0631,24.99945 -0.0316,37.49927 0.0196,7.78164 2.14572,10.26904 9.89583,11.79055 5.07031,0.99543 7.73768,4.67136 7.05949,9.72879 -0.55266,4.12146 -5.41913,7.62485 -9.9879,7.19034 -13.54628,-1.28836 -23.83769,-12.43722 -23.95718,-26.2142 -0.11853,-13.66556 -0.006,-27.33301 -0.0396,-40.99948 -0.0161,-6.61328 -2.00212,-8.79358 -8.65183,-9.73451 -4.60357,-0.6514 -8.34764,-4.4961 -8.31869,-8.54229 0.0286,-3.99081 3.79927,-7.83455 8.28729,-8.44774 5.58321,-0.76281 8.63608,-4.03965 8.66779,-9.70272 0.0747,-13.33284 0.11244,-26.66713 -0.009,-39.99927 -0.0585,-6.40633 1.65749,-12.1243 5.73055,-17.49689 z"
   id="path13184" />
<path
   fill="#4cbb61"
   opacity="1"
   stroke="none"
   d="m 253.9779,248.33369 c 3.62452,0.14408 6.83686,-0.0591 9.90616,0.50975 5.13614,0.95185 7.9683,5.4316 6.40778,10.43363 -3.60968,11.57037 -7.39258,23.09311 -11.42233,34.52338 -2.10697,5.97637 -11.23308,8.21777 -20.79317,5.57367 -5.30693,-1.46781 -7.22057,-5.12147 -6.09773,-12.21497 1.53187,-9.67773 3.18406,-19.33695 4.8507,-28.99271 1.34379,-7.7854 3.74215,-9.76013 11.68232,-9.82968 1.66316,-0.0146 3.32655,-0.003 5.46627,-0.003 z"
   id="path13186" />
<path
   fill="#4bbb60"
   opacity="1"
   stroke="none"
   d="m 264.28662,212.68712 c -11.2715,3.76865 -20.95814,-0.87284 -23.77101,-11.039 -2.6042,-9.41198 3.40324,-19.01274 13.2346,-21.15085 7.67316,-1.66875 16.02762,2.85528 19.05664,10.31943 3.335,8.21809 0.25794,16.38903 -8.52023,21.87042 z"
   id="path13188" />
<path
   fill="#fcfefd"
   opacity="1"
   stroke="none"
   d="m 193.88267,393.43622 c 13.62046,1.2471 22.78234,7.87613 27.35065,20.42254 2.42845,6.66959 0.64015,11.42731 -4.64606,13.27234 -5.09004,1.77658 -8.98275,-0.71963 -11.41441,-7.31952 -2.46835,-6.69955 -7.53291,-9.85406 -14.28403,-8.89691 -5.99197,0.84949 -10.49379,5.85004 -10.68078,12.57254 -0.23598,8.48352 -0.2457,16.98401 3e-4,25.46695 0.19713,6.79709 4.8516,11.7872 11.20923,12.73953 5.85816,0.87751 11.49065,-2.77026 13.72051,-9.14547 1.27185,-3.63617 2.89657,-6.7796 7.07461,-7.55716 7.12448,-1.3259 11.69074,4.86545 9.38947,12.68027 -5.28714,17.95452 -26.18907,26.6759 -42.7004,17.66183 -10.20399,-5.57068 -15.3769,-14.47607 -15.7736,-26.00366 -0.2632,-7.64899 -0.0674,-15.31412 -0.0588,-22.97202 0.0222,-19.76745 10.63475,-31.26767 30.81333,-32.92126 z"
   id="path13190" />
<path
   fill="#fcfefd"
   opacity="1"
   stroke="none"
   d="m 340.75098,448.50153 c -3.19126,-1.50202 -6.07901,-3.25995 -9.16254,-3.72785 -13.13187,-1.99255 -22.39368,-11.31863 -23.39169,-24.07968 -0.90198,-11.53302 6.95419,-22.65539 18.4057,-26.05789 10.33511,-3.0708 21.69757,0.80188 27.92553,9.51785 3.50016,4.89841 3.18442,9.64572 -0.85476,12.8522 -4.04196,3.20874 -8.45578,2.40732 -12.58002,-2.28424 -3.93539,-4.47674 -8.80109,-5.26931 -12.64764,-2.06018 -3.53504,2.94916 -4.49796,8.44382 -1.21289,11.50049 2.10244,1.95627 5.42477,3.24561 8.34185,3.5734 14.52042,1.63153 24.29529,12.61081 23.62635,27.07833 -0.49604,10.72736 -8.00885,20.17859 -18.32352,23.05143 -10.65195,2.9667 -22.08939,-1.15647 -28.11652,-10.1362 -3.08111,-4.59049 -2.57953,-9.50199 1.27137,-12.4484 3.83126,-2.93149 8.61242,-2.09665 12.27664,2.14365 3.91086,4.52563 7.66952,5.53598 11.71374,3.14871 4.11661,-2.43005 5.0412,-6.11816 2.7284,-12.07162 z"
   id="path13192" />
<path
   fill="#fdfefd"
   opacity="1"
   stroke="none"
   d="m 271.02039,446.86072 c -3.65061,-1.0701 -6.97187,-2.00641 -10.34507,-2.68439 -11.61541,-2.33466 -20.24281,-12.18259 -20.67413,-23.72674 -0.45349,-12.13733 7.05725,-22.61332 18.58893,-25.9278 10.57849,-3.04047 22.77234,1.55865 28.38434,10.70563 2.72204,4.43667 2.01581,9.19152 -1.77881,11.97519 -3.86753,2.83719 -8.63941,2.27352 -11.89041,-1.94541 -3.03547,-3.93915 -6.60324,-5.67123 -11.25046,-3.74582 -3.80719,1.57737 -5.43424,4.82086 -4.88944,8.91834 0.58539,4.40271 3.90668,6.81647 9.85501,7.41238 18.00971,1.80429 28.78782,18.68787 22.16932,34.92835 -3.8617,9.4758 -11.18518,14.87912 -21.23126,15.92981 -9.47547,0.99105 -17.25597,-2.78113 -23.04095,-10.36789 -3.62883,-4.75907 -3.31283,-9.71994 0.59681,-12.89579 3.89175,-3.16134 8.67006,-2.34515 12.66932,2.16404 4.20606,4.74246 8.47358,5.50641 12.58496,2.2529 4.01215,-3.17496 4.20191,-7.51264 0.25184,-12.9928 z"
   id="path13194" />
</svg>
