<?xml version="1.0" encoding="UTF-8" standalone="no"?>
<svg
   version="1.1"
   id="Layer_1"
   x="0px"
   y="0px"
   width="100%"
   viewBox="0 0 512 512"
   enable-background="new 0 0 512 512"
   xml:space="preserve"
   sodipodi:docname="file.svg"
   inkscape:version="1.2.1 (9c6d41e, 2022-07-14)"
   xmlns:inkscape="http://www.inkscape.org/namespaces/inkscape"
   xmlns:sodipodi="http://sodipodi.sourceforge.net/DTD/sodipodi-0.dtd"
   xmlns="http://www.w3.org/2000/svg"
   xmlns:svg="http://www.w3.org/2000/svg"><defs
   id="defs24843" /><sodipodi:namedview
   id="namedview24841"
   pagecolor="#ffffff"
   bordercolor="#000000"
   borderopacity="0.25"
   inkscape:showpageshadow="2"
   inkscape:pageopacity="0.0"
   inkscape:pagecheckerboard="0"
   inkscape:deskcolor="#d1d1d1"
   showgrid="false"
   inkscape:zoom="0.65186406"
   inkscape:cx="188.68965"
   inkscape:cy="276.13119"
   inkscape:window-width="2560"
   inkscape:window-height="1334"
   inkscape:window-x="3168"
   inkscape:window-y="383"
   inkscape:window-maximized="1"
   inkscape:current-layer="Layer_1" />
<path
   fill="#2296F3"
   opacity="1"
   stroke="none"
   d="m 297.56219,1.467814 c 0.49573,40.774862 0.46698,81.081937 0.50187,121.388946 0.0119,13.74499 8.42373,22.1607 22.02789,22.23328 3.33111,0.0178 6.66235,-0.003 9.9935,0.007 26.97836,0.075 83.95672,0.15287 110.93228,0.67803 -0.008,93.08592 -0.0124,185.72363 -0.0169,278.36136 -0.001,22.8262 0.008,45.6524 -0.008,68.47861 -0.005,7.20977 -3.14181,12.7355 -9.05466,16.81417 -1.44589,0.99744 -2.63247,2.3707 -3.93826,3.57117 -104.68756,0 -239.37512,0 -344.200981,-0.23944 -0.583435,-0.70795 -0.965111,-1.26657 -1.483307,-1.63123 C 75.648476,506.4379 71.863411,500.67682 71.873238,491.88443 72.048416,335.18268 72.01899,178.48065 71.932747,21.778749 71.929268,15.461584 72.632245,3.5229533 84.713643,3.3376527 132.24172,2.6086824 225.51669,1.9587889 297.56219,1.467814 Z"
   id="path24820"
   style="fill:#ffffff;fill-opacity:1;stroke:#000000;stroke-width:6;stroke-dasharray:none;stroke-opacity:1"
   sodipodi:nodetypes="cssccssscccsssc" />



<path
   fill="#8FCAF9"
   opacity="1.000000"
   stroke="none"
   d=" M441.245758,145.062286   C431.479553,145.105576 421.713318,145.148849 411.483826,145.259308   C384.042175,145.249527 357.063812,145.171646 330.085449,145.096664   C326.754303,145.087418 323.423065,145.107819 320.091949,145.090042   C306.487793,145.017456 298.075958,136.601746 298.064056,122.856758   C298.029175,82.549751 298.057922,42.242676 298.030884,1.467814   C298.750000,1.000000 299.500000,1.000000 300.625000,1.000003   C301.696106,2.184955 302.181427,3.578671 303.118561,4.524896   C349.006256,50.857719 394.932800,97.152054 441.042969,143.999496   C441.235840,144.719650 441.240784,144.890976 441.245758,145.062286  z"
   id="path24828"
   style="fill:#ebebeb;fill-opacity:1;stroke:#000000;stroke-opacity:1;stroke-width:6;stroke-dasharray:none" />



<path
   fill="#F8F9FA"
   opacity="1"
   stroke="none"
   d="m 216.98401,217.34837 c 50.88743,5e-4 101.21539,-0.0188 151.54321,0.0148 13.22728,0.009 21.82924,7.00245 17.25199,13.86144 -2.69927,4.04475 -9.01609,6.50983 -17.20755,6.5424 -12.86104,0.0512 -25.723,0.0153 -38.58458,0.0154 -60.20709,2e-4 -120.41416,3.9e-4 -180.62124,-0.002 -1.86356,-6e-5 -3.73898,0.0538 -5.58868,-0.0469 -9.48876,-0.51666 -16.688,-5.28288 -16.22094,-10.68803 0.46218,-5.34849 7.90116,-9.63936 17.29114,-9.66813 23.8585,-0.0731 47.71801,-0.0276 72.13665,-0.0296 z"
   id="path24832"
   style="fill:#020303;fill-opacity:1;stroke-width:0.859987" /><path
   fill="#F7F9FA"
   opacity="1"
   stroke="none"
   d="m 367.66209,300.11641 c -73.59361,0.002 -146.67213,0.004 -219.75064,-0.003 -10.46093,-6.5e-4 -16.96279,-2.4706 -19.54758,-7.35247 -3.1627,-5.97334 4.06533,-12.41113 14.60879,-12.97189 1.85148,-0.0985 3.72521,-0.0687 5.58865,-0.0688 72.51922,-0.003 145.03844,-0.01 217.55765,0.0217 3.12814,0.002 6.42656,0.0478 9.35061,0.60917 7.74295,1.48665 12.56958,6.32593 11.37602,10.89101 -1.39454,5.3339 -8.03376,8.48939 -19.1835,8.87364 z"
   id="path24830"
   style="fill:#020303;fill-opacity:1;stroke-width:0.859987" /><path
   fill="#FAFAFA"
   opacity="1"
   stroke="none"
   d="m 233.7699,362.42467 c -28.88761,-5.2e-4 -57.21616,0.0453 -85.54317,-0.0568 -3.79821,-0.0137 -7.90098,-0.36541 -11.31719,-1.27509 -6.92962,-1.84516 -10.51423,-6.51764 -9.08048,-10.69475 1.55552,-4.53186 7.62602,-7.81123 15.41225,-8.26038 2.03406,-0.11734 4.09387,-0.10764 6.14187,-0.10779 71.93835,-0.005 143.87673,-0.0131 215.81506,0.0233 3.49926,0.002 7.17966,0.0671 10.46015,0.68604 7.44713,1.4052 12.20583,6.18455 11.22368,10.63967 -1.03059,4.6747 -7.13828,8.32796 -15.02734,8.87094 -2.58065,0.17759 -5.207,0.16748 -7.81252,0.16804 -43.2376,0.009 -86.47517,0.007 -130.27231,0.007 z"
   id="path24834"
   style="fill:#020303;fill-opacity:1;stroke-width:0.859987" /><path
   fill="#F7F9FA"
   opacity="1"
   stroke="none"
   d="m 187.88815,406.59095 c 27.94052,4.7e-4 55.32159,-0.0273 82.70236,0.0145 11.80493,0.018 19.51756,4.23764 19.39254,10.43199 -0.10788,5.34552 -6.94327,9.59434 -16.05137,9.95539 -1.48473,0.0589 -2.97865,0.0493 -4.46834,0.0494 -40.4195,0.002 -80.83905,0.01 -121.2585,-0.0159 -2.77145,-0.002 -5.66222,-2.9e-4 -8.29097,-0.43546 -7.56295,-1.25194 -12.76985,-5.71145 -12.35201,-10.22195 0.428,-4.62003 6.13249,-8.52477 13.99542,-9.44523 2.17048,-0.25408 4.43404,-0.31366 6.6558,-0.3185 13.03836,-0.0284 26.077,-0.0142 39.67507,-0.0142 z"
   id="path24836"
   style="fill:#020303;fill-opacity:1;stroke-width:0.859987" />
<path
   fill="#2296F3"
   opacity="1.000000"
   stroke="none"
   d=" M441.398956,145.049286   C441.240784,144.890976 441.235840,144.719650 441.222565,144.292786   C441.584198,144.025101 441.829285,144.194214 441.904297,144.780853   C441.859039,145.017151 441.552155,145.036270 441.398956,145.049286  z"
   id="path24838" />
</svg>
