<?xml version="1.0" encoding="UTF-8" standalone="no"?>
<svg
   version="1.1"
   id="Layer_1"
   x="0px"
   y="0px"
   width="530"
   viewBox="-7 30 527.83231 458.11861"
   enable-background="new 0 0 512 512"
   xml:space="preserve"
   sodipodi:docname="folder.svg"
   height="460"
   inkscape:version="1.2.1 (9c6d41e, 2022-07-14)"
   xmlns:inkscape="http://www.inkscape.org/namespaces/inkscape"
   xmlns:sodipodi="http://sodipodi.sourceforge.net/DTD/sodipodi-0.dtd"
   xmlns="http://www.w3.org/2000/svg"
   xmlns:svg="http://www.w3.org/2000/svg"><defs
   id="defs5955" /><sodipodi:namedview
   id="namedview5953"
   pagecolor="#ffffff"
   bordercolor="#000000"
   borderopacity="0.25"
   inkscape:showpageshadow="2"
   inkscape:pageopacity="0.0"
   inkscape:pagecheckerboard="0"
   inkscape:deskcolor="#d1d1d1"
   showgrid="false"
   inkscape:zoom="1.0036036"
   inkscape:cx="208.24955"
   inkscape:cy="153.44704"
   inkscape:window-width="2560"
   inkscape:window-height="1334"
   inkscape:window-x="3168"
   inkscape:window-y="383"
   inkscape:window-maximized="1"
   inkscape:current-layer="Layer_1" />
<path
   fill="#e89c1b"
   opacity="1"
   stroke="none"
   d="m 4.98364,75.476838 c 8.547139,-21.088603 23.944526,-37.1978 45.435012,-37.34739 51.129668,-0.3559 102.262428,-0.192364 153.392738,0.03634 2.86203,0.0128 6.35655,1.771846 8.46742,3.833427 16.32016,15.939011 32.37173,32.153004 48.6326,48.589054 -10.16912,0.707306 -15.52761,8.583557 -21.8844,14.902081 -11.56667,11.49707 -23.1861,22.94517 -34.53723,34.65249 -3.38799,3.49426 -6.8595,4.97039 -11.77993,4.95752 C 133.46646,144.94527 74.222336,145.07065 14.979093,144.89142 9.02117,144.87338 4.652626,146.617 1.239097,151.76714 1,127.31244 -0.34538826,94.898367 4.98364,75.476838 Z"
   id="path5948"
   style="stroke:#000000;stroke-width:6;stroke-dasharray:none;stroke-opacity:1"
   sodipodi:nodetypes="cssccsscscc" /><path
   fill="#f2ae17"
   opacity="1"
   stroke="none"
   d="m 513,130 c 0.16256,100.40698 -0.19543,204.45696 -0.2782,306.19074 -0.0191,23.48204 -29.38178,39.03681 -48.98151,39.57733 -137.78823,0.43597 -275.58067,0.87499 -413.368056,0.10119 C 29.946769,475.75455 1.8647929,457.27527 1.000001,437 1.4381305,343.83126 2.0020156,247.91371 1.239097,152.23579 c -0.052422,-6.57421 7.782073,-7.36241 13.739996,-7.34437 59.243243,0.17923 118.487367,0.0538 177.730757,0.20894 4.92043,0.0129 8.39194,-1.46326 11.77993,-4.95752 11.35113,-11.70732 22.97056,-23.15542 34.53723,-34.65249 6.35679,-6.318521 11.71528,-14.194772 22.47439,-14.544626 66.55329,0.05488 132.64267,0.03603 198.73188,0.123711 3.89599,0.0052 7.91333,0.409241 11.66568,1.409683 C 495.90007,97.276235 512.97451,114.25725 513,130 Z"
   id="path5944"
   style="stroke:#000000;stroke-width:6;stroke-dasharray:none;stroke-opacity:1"
   sodipodi:nodetypes="sscscscscscscs" />



</svg>
