<?xml version="1.0" encoding="UTF-8" standalone="no"?>
<svg
   version="1.1"
   id="Layer_1"
   x="0px"
   y="0px"
   width="393"
   viewBox="60 0 393 512"
   enable-background="new 0 0 512 512"
   xml:space="preserve"
   sodipodi:docname="html.svg"
   inkscape:version="1.2.1 (9c6d41e, 2022-07-14)"
   height="512"
   xmlns:inkscape="http://www.inkscape.org/namespaces/inkscape"
   xmlns:sodipodi="http://sodipodi.sourceforge.net/DTD/sodipodi-0.dtd"
   xmlns="http://www.w3.org/2000/svg"
   xmlns:svg="http://www.w3.org/2000/svg"><defs
   id="defs177" /><sodipodi:namedview
   id="namedview175"
   pagecolor="#ffffff"
   bordercolor="#000000"
   borderopacity="0.25"
   inkscape:showpageshadow="2"
   inkscape:pageopacity="0.0"
   inkscape:pagecheckerboard="0"
   inkscape:deskcolor="#d1d1d1"
   showgrid="false"
   inkscape:zoom="1.3037281"
   inkscape:cx="295.30697"
   inkscape:cy="266.92682"
   inkscape:window-width="2560"
   inkscape:window-height="1334"
   inkscape:window-x="3168"
   inkscape:window-y="383"
   inkscape:window-maximized="1"
   inkscape:current-layer="Layer_1" />

<path
   fill="#e8edf3"
   opacity="1"
   stroke="none"
   d="m 69.16404,367.9205 c -0.05482,-1.82858 -0.157524,-3.65719 -0.157647,-5.48578 C 68.998795,250.3432 69.068817,138.25156 68.864975,26.160402 68.849098,17.427006 77.268143,8.922548 86.097366,8.934279 169.20818,9.044714 252.31918,8.99349 335.43011,9.045005 c 1.89481,0.00117 3.78919,0.659812 6.15772,1.415494 8.38165,6.513634 9.86505,14.790981 9.5368,24.273231 -0.50625,14.625668 -0.21426,29.282551 -0.10223,43.924984 0.10242,13.387696 11.18936,24.317336 24.57758,24.360956 14.80951,0.0482 29.62353,0.23004 44.42749,-0.0599 9.63772,-0.18877 18.29907,1.02642 23.46517,10.50946 0.18024,0.33085 0.87616,0.38074 1.33176,0.56158 0.0579,1.49704 0.16635,2.99407 0.16632,4.49111 -6e-5,82.82672 -0.009,165.65344 -0.54373,248.95145 -125.44519,0.46325 -250.36407,0.45523 -375.28295,0.44717 M 281.95862,158.57329 c 1.16305,-4.57393 0.74865,-8.7047 -3.73017,-11.34066 -3.38833,-1.99414 -7.05194,-1.79087 -9.6325,1.06045 -1.77249,1.95845 -2.90192,4.82559 -3.49924,7.47155 -7.98358,35.36637 -15.83603,70.76235 -23.6909,106.15767 -3.27915,14.77637 -6.57054,29.551 -9.68111,44.36322 -1.06338,5.06378 1.67815,9.06211 6.41377,10.20108 4.31922,1.03882 8.41626,-1.46502 9.95591,-6.15136 0.41391,-1.25986 0.6631,-2.57612 0.95248,-3.87433 10.92796,-49.026 21.85182,-98.05294 32.91176,-147.88762 M 160.33589,262.15201 c 1.00737,0.87161 2.01138,1.74713 3.02263,2.61422 9.09973,7.80225 18.17409,15.63437 27.31253,23.39103 4.57323,3.88171 9.45264,3.86505 12.85503,0.1358 3.6114,-3.95834 2.98285,-8.74414 -1.75269,-13.0661 -1.47507,-1.34625 -3.01308,-2.6239 -4.53003,-3.92392 -15.41618,-13.2117 -30.83395,-26.42152 -46.53995,-39.8792 2.06907,-1.80096 3.92615,-3.43962 5.80677,-5.05082 15.04324,-12.88816 30.11279,-25.74573 45.12428,-38.67073 4.64464,-3.99907 5.59998,-8.19407 3.06599,-12.22487 -2.96508,-4.71657 -8.8556,-5.24999 -13.78959,-1.03727 -19.24474,16.43139 -38.45409,32.90433 -57.63745,49.40734 -5.82872,5.01431 -5.83429,9.99948 -0.004,15.07356 8.79036,7.65082 17.67547,15.19278 27.06689,23.23096 m 219.20317,-22.15038 c 6.60044,-5.80601 7.42529,-10.71786 2.00769,-15.41098 -19.62927,-17.00439 -39.37719,-33.87247 -59.15915,-50.69934 -4.14981,-3.52989 -9.33029,-3.05545 -12.42981,0.69508 -3.13613,3.7948 -2.5903,8.60613 1.57651,12.37265 3.33338,3.01314 6.81738,5.85947 10.22992,8.78521 13.7637,11.80029 27.52558,23.60269 41.55042,35.62922 -4.29892,3.71041 -8.30027,7.18029 -12.31919,10.62967 -13.0122,11.16817 -26.07562,22.27732 -39.02398,33.51892 -4.86536,4.22403 -5.07941,9.61295 -0.8732,13.37943 3.57107,3.19775 7.96774,2.90683 12.51907,-0.98474 18.4747,-15.79657 36.92169,-31.62552 55.92172,-47.91512 z"
   id="path154"
   style="stroke:#000000;stroke-width:6;stroke-dasharray:none;stroke-opacity:1" />
<path
   fill="#5724e2"
   opacity="1"
   stroke="none"
   d="m 69.096939,368.38937 c 124.985981,-0.46081 249.904861,-0.45279 375.281421,-0.45687 0.51168,40.78823 0.7893,81.59057 0.42651,122.38726 -0.0706,7.93537 -6.883,13.74091 -15.71643,14.6637 -0.9885,0.10327 -1.9971,0.0147 -2.99637,0.0147 -112.75134,3e-5 -225.50287,-0.0872 -338.253691,0.15308 -9.822479,0.021 -19.19661,-7.75678 -19.043076,-18.88178 0.54007,-39.13071 0.225067,-78.27322 0.301636,-117.88013 m 266.095141,25.39548 c -4.1333,-0.61102 -6.92117,1.32044 -9.28275,4.53519 -5.69079,7.74673 -11.53235,15.38272 -17.71814,23.60159 -6.01541,-8.01382 -11.77139,-15.50748 -17.32242,-23.14996 -2.81765,-3.87924 -6.17501,-6.25226 -11.02319,-4.65579 -4.93872,1.62622 -5.86865,5.70462 -5.84918,10.41296 0.0853,20.66067 0.0346,41.32193 0.0378,61.98297 10e-4,8.07428 2.83713,12.24655 8.39239,12.37329 5.7125,0.13031 8.64853,-4.12262 8.65091,-12.54886 0.004,-12.4075 9.2e-4,-24.81497 9.2e-4,-37.26205 0.63647,0.0596 0.85748,0.0156 0.91974,0.0955 2.86362,3.67242 5.65234,7.40494 8.57855,11.0264 4.7063,5.82452 10.80786,5.73306 15.44034,-0.20402 2.79275,-3.57925 5.48944,-7.23346 9.15671,-12.07949 0,3.24041 -3.1e-4,4.85406 3e-5,6.46768 0.002,11.66348 -0.0873,23.32803 0.0469,34.98999 0.0663,5.76352 3.83734,9.63211 8.76075,9.50391 4.84133,-0.1261 8.20385,-3.77295 8.2218,-9.39878 0.0707,-22.1604 0.0165,-44.3212 0.0453,-66.48175 0.006,-4.51135 -1.76645,-7.69131 -7.05643,-9.20874 m -218.90997,1.0271 c -8.09607,-2.81415 -12.92596,0.57697 -12.95572,9.3454 -0.0724,21.31631 -0.0413,42.63306 0.0113,63.94946 0.004,1.80246 -0.13949,4.16196 0.87139,5.28671 1.96782,2.18949 4.61824,4.94001 7.14982,5.11719 2.52053,0.17645 5.73652,-2.04831 7.70296,-4.11777 1.32906,-1.39874 1.34151,-4.34512 1.38881,-6.61081 0.15556,-7.45162 0.0585,-14.9085 0.0585,-22.65142 11.54334,0 22.59599,0 34.16464,0 0,1.89685 -0.002,3.52267 3.2e-4,5.14846 0.01,6.66126 -0.11206,13.32624 0.0748,19.98255 0.13993,4.98367 3.46309,8.36087 7.96944,8.61624 4.35527,0.24683 8.13348,-3.02112 8.8893,-7.77521 0.18152,-1.14172 0.15818,-2.32263 0.15867,-3.48556 0.009,-20.98349 0.0148,-41.96695 -0.01,-62.95041 -0.002,-1.48633 -0.0437,-3.02426 -0.41194,-4.44898 -1.15532,-4.46923 -4.16303,-6.68066 -8.7714,-6.5155 -4.22512,0.1514 -7.49185,3.19049 -7.73863,7.63034 -0.28615,5.14749 -0.13544,10.31967 -0.15785,15.4812 -0.0155,3.56537 -0.003,7.13086 -0.003,10.57535 -11.87217,0 -22.78628,0 -34.16558,0 0,-7.82248 0.34436,-15.31448 -0.16097,-22.74872 -0.21745,-3.19919 -2.19635,-6.27868 -4.06524,-9.82852 m 126.97877,-1.32202 c -14.30943,1.5e-4 -28.61958,-0.0726 -42.92764,0.0677 -2.57587,0.0253 -5.41291,0.40069 -7.65215,1.54681 -3.49312,1.78797 -4.4866,5.30716 -3.58754,9.02768 1.03339,4.27628 4.21381,6.32907 8.4245,6.47519 5.42122,0.18814 10.85393,0.0458 16.70943,0.0458 0,6.30816 -6.6e-4,11.93054 1.2e-4,17.55288 0.002,13.64386 -0.10039,27.28891 0.0496,40.93115 0.0788,7.1702 5.50373,11.33613 11.41082,9.14326 4.4491,-1.65162 5.66324,-5.14335 5.65164,-9.51111 -0.0464,-17.47068 -0.0164,-34.94156 -0.0147,-52.41236 1.7e-4,-1.75671 3e-5,-3.51343 3e-5,-5.66024 3.3847,0 6.02628,0.003 8.66785,-7.7e-4 2.66212,-0.004 5.33339,0.12467 7.98445,-0.0503 5.54175,-0.36581 9.07231,-3.87473 8.99184,-8.72611 -0.078,-4.70153 -3.41875,-7.90362 -8.7896,-8.35559 -1.32298,-0.11133 -2.66019,-0.0533 -4.91858,-0.0739 m 173.44273,82.71313 c 2.5654,-2.92651 3.16181,-6.17297 1.41223,-9.69442 -1.77206,-3.56675 -4.86883,-4.67987 -8.67187,-4.65787 -10.785,0.0624 -21.57062,0.0218 -32.93417,0.0218 0,-2.33267 2.4e-4,-4.11752 -3e-5,-5.90234 -0.003,-17.32227 0.0545,-34.64481 -0.0378,-51.96662 -0.0363,-6.81167 -3.31585,-10.47265 -8.79077,-10.3277 -5.26596,0.13944 -8.33346,3.75779 -8.35247,10.31504 -0.0622,21.48608 -0.0669,42.97265 0.004,64.45868 0.0238,7.25323 3.22174,10.43014 10.3475,10.46371 12.99139,0.0613 25.98517,0.13086 38.97342,-0.0809 2.50412,-0.0408 4.98749,-1.35468 8.05032,-2.62946 z"
   id="path156"
   style="stroke:#000000;stroke-width:6;stroke-dasharray:none;stroke-opacity:1" />
<path
   fill="#c0cfdd"
   opacity="1"
   stroke="none"
   d="m 444.9129,113.63883 c -0.5441,0.2111 -1.24002,0.16121 -1.42026,-0.16964 -5.1661,-9.48304 -13.82745,-10.69823 -23.46517,-10.50946 -14.80396,0.28998 -29.61798,0.10818 -44.42749,0.0599 -13.38822,-0.0436 -24.47516,-10.97326 -24.57758,-24.360956 -0.11203,-14.642433 -0.40402,-29.299316 0.10223,-43.924984 0.32825,-9.48225 -1.15515,-17.759597 -9.11374,-24.203342 8.34186,0.03637 15.0832,4.225881 20.73447,9.803026 23.788,23.475969 47.35776,47.173544 70.944,70.853148 6.08713,6.111244 9.24603,13.831938 11.22354,22.452268 z"
   id="path158"
   style="stroke:#000000;stroke-width:6;stroke-dasharray:none;stroke-opacity:1" />
<path
   fill="#5826e2"
   opacity="1"
   stroke="none"
   d="m 281.89084,158.97723 c -10.99216,49.43074 -21.91602,98.45768 -32.84398,147.48368 -0.28938,1.29821 -0.53857,2.61447 -0.95248,3.87433 -1.53965,4.68634 -5.63669,7.19018 -9.95591,6.15136 -4.73562,-1.13897 -7.47715,-5.1373 -6.41377,-10.20108 3.11057,-14.81222 6.40196,-29.58685 9.68111,-44.36322 7.85487,-35.39532 15.70732,-70.7913 23.6909,-106.15767 0.59732,-2.64596 1.72675,-5.5131 3.49924,-7.47155 2.58056,-2.85132 6.24417,-3.05459 9.6325,-1.06045 4.47882,2.63596 4.89322,6.76673 3.66239,11.7446 z"
   id="path160" />
<path
   fill="#1c4065"
   opacity="1"
   stroke="none"
   d="m 160.06261,261.92703 c -9.11814,-7.8132 -18.00325,-15.35516 -26.79361,-23.00598 -5.82988,-5.07408 -5.82431,-10.05925 0.004,-15.07356 19.18336,-16.50301 38.39271,-32.97595 57.63745,-49.40734 4.93399,-4.21272 10.82451,-3.6793 13.78959,1.03727 2.53399,4.0308 1.57865,8.2258 -3.06599,12.22487 -15.01149,12.925 -30.08104,25.78257 -45.12428,38.67073 -1.88062,1.6112 -3.7377,3.24986 -5.80677,5.05082 15.706,13.45768 31.12377,26.6675 46.53995,39.8792 1.51695,1.30002 3.05496,2.57767 4.53003,3.92392 4.73554,4.32196 5.36409,9.10776 1.75269,13.0661 -3.40239,3.72925 -8.2818,3.74591 -12.85503,-0.1358 -9.13844,-7.75666 -18.2128,-15.58878 -27.31253,-23.39103 -1.01125,-0.86709 -2.01526,-1.74261 -3.29591,-2.8392 z"
   id="path162" />
<path
   fill="#1c4065"
   opacity="1"
   stroke="none"
   d="m 379.26764,240.23791 c -18.72861,16.05332 -37.1756,31.88227 -55.6503,47.67884 -4.55133,3.89157 -8.948,4.18249 -12.51907,0.98474 -4.20621,-3.76648 -3.99216,-9.1554 0.8732,-13.37943 12.94836,-11.2416 26.01178,-22.35075 39.02398,-33.51892 4.01892,-3.44938 8.02027,-6.91926 12.31919,-10.62967 -14.02484,-12.02653 -27.78672,-23.82893 -41.55042,-35.62922 -3.41254,-2.92574 -6.89654,-5.77207 -10.22992,-8.78521 -4.16681,-3.76652 -4.71264,-8.57785 -1.57651,-12.37265 3.09952,-3.75053 8.28,-4.22497 12.42981,-0.69508 19.78196,16.82687 39.52988,33.69495 59.15915,50.69934 5.4176,4.69312 4.59275,9.60497 -2.27911,15.64726 z"
   id="path164" />
<path
   fill="#fdfdff"
   opacity="1"
   stroke="none"
   d="m 335.59961,393.85696 c 4.88245,1.44532 6.65478,4.62528 6.6489,9.13663 -0.0288,22.16055 0.0254,44.32135 -0.0453,66.48175 -0.0179,5.62583 -3.38047,9.27268 -8.2218,9.39878 -4.92341,0.1282 -8.69443,-3.74039 -8.76075,-9.50391 -0.13412,-11.66196 -0.0444,-23.32651 -0.0469,-34.98999 -3.4e-4,-1.61362 -3e-5,-3.22727 -3e-5,-6.46768 -3.66727,4.84603 -6.36396,8.50024 -9.15671,12.07949 -4.63248,5.93708 -10.73404,6.02854 -15.44034,0.20402 -2.92621,-3.62146 -5.71493,-7.35398 -8.57855,-11.0264 -0.0623,-0.0799 -0.28327,-0.0359 -0.91974,-0.0955 0,12.44708 0.003,24.85455 -9.2e-4,37.26205 -0.002,8.42624 -2.93841,12.67917 -8.65091,12.54886 -5.55526,-0.12674 -8.39111,-4.29901 -8.39239,-12.37329 -0.003,-20.66104 0.0475,-41.3223 -0.0378,-61.98297 -0.0195,-4.70834 0.91046,-8.78674 5.84918,-10.41296 4.84818,-1.59647 8.20554,0.77655 11.02319,4.65579 5.55103,7.64248 11.30701,15.13614 17.32242,23.14996 6.18579,-8.21887 12.02735,-15.85486 17.71814,-23.60159 2.36158,-3.21475 5.14945,-5.14621 9.69028,-4.46308 z"
   id="path166" />
<path
   fill="#fbfafe"
   opacity="1"
   stroke="none"
   d="m 116.62723,395.01996 c 1.52377,3.34183 3.50267,6.42132 3.72012,9.62051 0.50533,7.43424 0.16097,14.92624 0.16097,22.74872 11.3793,0 22.29341,0 34.16558,0 0,-3.44449 -0.0125,-7.00998 0.003,-10.57535 0.0224,-5.16153 -0.1283,-10.33371 0.15785,-15.4812 0.24678,-4.43985 3.51351,-7.47894 7.73863,-7.63034 4.60837,-0.16516 7.61608,2.04627 8.7714,6.5155 0.36828,1.42472 0.4102,2.96265 0.41194,4.44898 0.0245,20.98346 0.0185,41.96692 0.01,62.95041 -4.9e-4,1.16293 0.0229,2.34384 -0.15867,3.48556 -0.75582,4.75409 -4.53403,8.02204 -8.8893,7.77521 -4.50635,-0.25537 -7.82951,-3.63257 -7.96944,-8.61624 -0.18686,-6.65631 -0.0651,-13.32129 -0.0748,-19.98255 -0.002,-1.62579 -3.2e-4,-3.25161 -3.2e-4,-5.14846 -11.56865,0 -22.6213,0 -34.16464,0 0,7.74292 0.097,15.1998 -0.0585,22.65142 -0.0473,2.26569 -0.0597,5.21207 -1.38881,6.61081 -1.96644,2.06946 -5.18243,4.29422 -7.70296,4.11777 -2.53158,-0.17718 -5.182,-2.9277 -7.14982,-5.11719 -1.01088,-1.12475 -0.86695,-3.48425 -0.87139,-5.28671 -0.0526,-21.3164 -0.0837,-42.63315 -0.0113,-63.94946 0.0298,-8.76843 4.85965,-12.15955 13.30084,-9.13739 z"
   id="path168" />
<path
   fill="#fcfbfe"
   opacity="1"
   stroke="none"
   d="m 243.72473,393.49029 c 1.79454,0.0202 3.13175,-0.0378 4.45473,0.0736 5.37085,0.45197 8.71159,3.65406 8.7896,8.35559 0.0805,4.85138 -3.45009,8.3603 -8.99184,8.72611 -2.65106,0.17499 -5.32233,0.0466 -7.98445,0.0503 -2.64157,0.004 -5.28315,7.7e-4 -8.66785,7.7e-4 0,2.14681 1.4e-4,3.90353 -3e-5,5.66024 -0.002,17.4708 -0.0317,34.94168 0.0147,52.41236 0.0116,4.36776 -1.20254,7.85949 -5.65164,9.51111 -5.90709,2.19287 -11.33201,-1.97306 -11.41082,-9.14326 -0.14997,-13.64224 -0.0477,-27.28729 -0.0496,-40.93115 -7.8e-4,-5.62234 -1.2e-4,-11.24472 -1.2e-4,-17.55288 -5.8555,0 -11.28821,0.14236 -16.70943,-0.0458 -4.21069,-0.14612 -7.39111,-2.19891 -8.4245,-6.47519 -0.89906,-3.72052 0.0944,-7.23971 3.58754,-9.02768 2.23924,-1.14612 5.07628,-1.52154 7.65215,-1.54681 14.30806,-0.14032 28.61821,-0.0675 43.39149,-0.0673 z"
   id="path170" />
<path
   fill="#fcfbfe"
   opacity="1"
   stroke="none"
   d="m 416.41867,476.47714 c -2.77789,1.0007 -5.26126,2.31458 -7.76538,2.35538 -12.98825,0.21173 -25.98203,0.14212 -38.97342,0.0809 -7.12576,-0.0336 -10.32367,-3.21048 -10.3475,-10.46371 -0.0706,-21.48603 -0.0659,-42.9726 -0.004,-64.45868 0.019,-6.55725 3.08651,-10.1756 8.35247,-10.31504 5.47492,-0.14495 8.75449,3.51603 8.79077,10.3277 0.0923,17.32181 0.0352,34.64435 0.0378,51.96662 2.7e-4,1.78482 3e-5,3.56967 3e-5,5.90234 11.36355,0 22.14917,0.0406 32.93417,-0.0218 3.80304,-0.022 6.89981,1.09112 8.67187,4.65787 1.74958,3.52145 1.15317,6.76791 -1.69717,9.9685 z"
   id="path172" />
</svg>
