<?xml version="1.0" encoding="UTF-8" standalone="no"?>
<svg
   version="1.1"
   id="Layer_1"
   x="0px"
   y="0px"
   width="410"
   viewBox="52 -5 410 524"
   enable-background="new 0 0 512 512"
   xml:space="preserve"
   sodipodi:docname="js.svg"
   inkscape:version="1.2.1 (9c6d41e, 2022-07-14)"
   height="524"
   xmlns:inkscape="http://www.inkscape.org/namespaces/inkscape"
   xmlns:sodipodi="http://sodipodi.sourceforge.net/DTD/sodipodi-0.dtd"
   xmlns="http://www.w3.org/2000/svg"
   xmlns:svg="http://www.w3.org/2000/svg"><defs
   id="defs15171" /><sodipodi:namedview
   id="namedview15169"
   pagecolor="#ffffff"
   bordercolor="#000000"
   borderopacity="0.25"
   inkscape:showpageshadow="2"
   inkscape:pageopacity="0.0"
   inkscape:pagecheckerboard="0"
   inkscape:deskcolor="#d1d1d1"
   showgrid="false"
   inkscape:zoom="1.3037281"
   inkscape:cx="159.92598"
   inkscape:cy="295.30697"
   inkscape:window-width="2560"
   inkscape:window-height="1334"
   inkscape:window-x="3168"
   inkscape:window-y="383"
   inkscape:window-maximized="1"
   inkscape:current-layer="Layer_1" />




<path
   fill="#d9d7ca"
   opacity="1"
   stroke="none"
   d="m 344.00585,2.4875661 c 0.42329,-0.1956639 3.00555,0.7711411 3.33925,1.1134038 34.95412,35.8476981 70.6648,69.7885391 105.73823,105.9394601 1.57832,23.51385 -70.41606,1.41772 -104.24966,1.58148 -3.93569,0.0191 -4.94638,-1.28293 -4.93178,-5.15666 0.12971,-34.338173 0.0832,-68.677054 0.10396,-103.4776839 z"
   id="path15154"
   style="stroke:#000000;stroke-width:5.932;stroke-dasharray:none;stroke-opacity:1"
   sodipodi:nodetypes="cccscc" />
<path
   fill="#eeb04d"
   opacity="1"
   stroke="none"
   d="m 317.06085,275.0777 c 6.50867,-1.86035 8.11884,-3.897 8.23999,-10.38755 0.22974,-12.30833 0.34635,-24.6188 0.58277,-36.92698 0.17837,-9.28881 3.99585,-17.0132 10.40856,-23.57631 0.56177,-0.57494 1.02082,-1.25025 1.24396,-1.52706 -3.19961,-5.00035 -7.11795,-9.38348 -8.98779,-14.51332 -2.05795,-5.64573 -2.80594,-11.95037 -3.0979,-18.01736 -0.47958,-9.96692 -0.079,-19.97403 -0.14945,-29.9635 -0.0523,-7.41304 -2.04943,-9.74368 -9.24789,-11.21073 -5.67709,-1.15699 -9.10547,-5.01857 -8.70697,-9.80707 0.4277,-5.13943 4.54581,-8.32087 10.6174,-8.20242 14.16977,0.27646 25.67224,12.41993 25.92615,27.68698 0.19104,11.48533 0.005,22.97645 0.0594,34.46465 0.0553,11.65546 6.29998,18.53949 17.92895,19.90198 5.61804,0.65823 9.01779,3.88002 9.18115,8.70048 0.17939,5.29372 -2.69116,8.37661 -8.81439,9.46631 -13.35754,2.37718 -18.28812,8.20261 -18.30603,21.66187 -0.0147,10.98892 0.15527,21.98105 -0.0548,32.96603 -0.27466,14.36627 -10.18756,25.66132 -23.59958,27.29102 -7.37756,0.89645 -11.54367,-1.43979 -12.70724,-7.12589 -1.05551,-5.15799 2.10681,-8.922 9.48367,-10.88113 z"
   id="path15156" />
<path
   fill="#eeb04c"
   opacity="1"
   stroke="none"
   d="m 157.89011,184.73173 c 1.17302,-3.95613 2.86088,-7.57662 2.97256,-11.24511 0.36496,-11.98732 -0.0586,-23.99716 0.22173,-35.98897 0.34341,-14.69198 12.43295,-26.61912 26.48025,-26.57284 5.58791,0.0184 9.09944,2.8749 9.77127,7.94852 0.63524,4.79736 -2.41656,8.73105 -7.73645,9.97199 -8.56079,1.99693 -10.42734,4.28572 -10.45627,12.96318 -0.0267,7.99874 -0.006,15.99762 -0.006,23.99645 -2e-5,19.93831 -0.22121,20.61308 -12.05527,36.4281 1.63655,1.93512 3.47494,3.8251 4.98572,5.94821 4.66145,6.5508 7.17724,13.79729 7.08897,21.9482 -0.11731,10.83041 -0.0512,21.66322 -0.01,32.49481 0.0319,8.37359 1.96739,10.76165 10.11569,12.73596 6.09785,1.47748 8.89076,5.52744 7.78078,11.28278 -0.87954,4.56045 -5.10622,7.19158 -10.68055,6.64871 -14.76217,-1.43772 -25.0733,-12.3942 -25.32174,-27.22531 -0.18141,-10.82874 -0.0397,-21.66288 -0.044,-32.4946 -0.006,-14.0801 -4.93119,-19.99945 -18.68969,-22.46509 -5.9911,-1.07365 -8.77823,-4.29805 -8.42453,-9.74626 0.31549,-4.85939 3.55091,-7.82852 9.4729,-8.35977 5.99768,-0.53803 10.83025,-2.99994 14.53431,-8.26896 z"
   id="path15158" />
<path
   fill="#eeb150"
   opacity="1"
   stroke="none"
   d="m 243.11453,253.73054 c 9.5e-4,-7.62803 -0.0697,-14.78962 0.0235,-21.94906 0.0881,-6.76349 3.9955,-11.4254 9.35356,-11.40805 5.35958,0.0173 9.19118,4.63736 9.27147,11.48036 0.0938,7.99203 0.2215,15.9937 -0.0642,23.97693 -0.22622,6.32153 -3.70279,9.97912 -8.84269,10.18335 -5.28701,0.21005 -8.86358,-3.21549 -9.68297,-9.32089 -0.11,-0.81961 -0.0435,-1.66292 -0.0587,-2.96264 z"
   id="path15160" />
<path
   fill="#eeb04d"
   opacity="1"
   stroke="none"
   d="m 264.26746,176.95251 c -5.35108,6.46045 -10.22962,8.22969 -16.21381,6.13634 -5.53546,-1.9364 -8.89838,-6.58693 -9.16112,-12.35797 -0.27383,-6.01511 2.46767,-10.28204 7.6555,-12.84503 5.03301,-2.4865 10.0575,-1.93825 14.43339,1.66975 4.51669,3.72408 5.99069,8.60242 4.57223,14.2947 -0.23804,0.95527 -0.71771,1.85037 -1.28619,3.10221 z"
   id="path15162" />
<path
   fill="#fffdfb"
   opacity="1"
   stroke="none"
   d="m 304.82758,478.85584 c -10.58014,8.31149 -29.17264,9.53121 -40.96042,3.09213 -2.90149,-1.5849 -4.28693,-3.26325 -2.91095,-6.62363 0.7904,-1.93036 1.11007,-4.05343 1.41458,-5.21985 8.3164,1.35657 16.06973,3.43317 23.88125,3.6817 8.96024,0.28507 14.31962,-6.46875 12.67435,-15.15014 -0.55774,-2.94318 -2.79114,-6.03687 -5.12683,-8.05939 -3.08984,-2.67554 -7.02112,-4.38577 -10.61206,-6.47427 -3.44775,-2.00528 -7.06494,-3.75351 -10.35922,-5.98197 -10.21799,-6.91199 -14.00119,-15.81726 -11.51682,-26.48041 2.4025,-10.31179 11.38773,-17.97293 22.82492,-19.4613 8.38596,-1.09134 18.96372,0.70413 25.35626,4.62979 -1.71575,3.36612 -3.46765,6.80319 -4.84414,9.50372 -5.77677,-0.5484 -10.80606,-1.39654 -15.8378,-1.41104 -6.50934,-0.0188 -11.81516,4.27735 -13.37543,10.01722 -1.38583,5.09814 0.75601,10.24154 6.60608,13.78463 5.53269,3.35092 11.55994,5.87415 17.19309,9.07245 16.70214,9.48267 19.17498,27.06018 5.59314,41.08036 z"
   id="path15164" />
<path
   fill="#fffefd"
   opacity="1"
   stroke="none"
   d="m 194.90984,470.27203 c 5.41819,1.02133 10.45678,2.59006 15.51278,2.64835 9.56948,0.11035 13.29462,-3.93408 13.33608,-13.46497 0.0783,-17.99655 0.0236,-35.99365 0.0241,-53.99054 1.2e-4,-4.46783 1e-5,-8.93567 1e-5,-13.67996 5.25006,0 9.98583,0 15.17783,0 0,4.66611 7e-5,8.96909 -2e-5,13.27207 -4.3e-4,18.66342 0.0321,37.32696 -0.0119,55.99026 -0.0345,14.6384 -5.94191,21.96692 -20.34558,24.40091 -12.80038,2.16312 -24.63717,-0.92581 -36.00863,-7.69489 2.22484,-3.52215 4.15889,-6.58401 6.19903,-9.81381 2.08011,0.7959 3.91234,1.49698 6.11634,2.33258 z"
   id="path15166" />
<path
   fill="#e9e9e0"
   opacity="1"
   stroke="none"
   d="m 342.65387,1.224632 c 0.85858,0.431846 1.12598,0.639059 1.37762,1.307851 -0.0213,34.771831 0.0264,69.082294 -0.10644,103.392047 -0.015,3.87053 1.0199,5.17143 5.04968,5.1524 34.64246,-0.16363 69.28592,-0.11968 104.01203,0.27812 0.54452,34.5111 1.02364,71.56564 1.01065,101.57815 -0.0215,48.40326 -0.0603,96.80648 -0.54398,145.10012 -1.9494,-0.16143 -3.44659,-0.25857 -4.94379,-0.25863 -127.65005,-0.007 -255.30011,-0.008 -382.950154,0.009 -1.82175,2.5e-4 -3.643474,0.23456 -5.504837,-0.1185 C 60.010193,244.29735 60.011932,131.40752 59.985626,18.517679 59.983894,11.077638 59.251083,5.1059994 67.576271,1.1355932 81.241229,0.72881356 251.04179,1 342.65387,1.224632 Z M 316.67566,275.12924 c -6.99167,1.90759 -10.15399,5.6716 -9.09848,10.82959 1.16357,5.6861 5.32968,8.02234 12.70724,7.12589 13.41202,-1.6297 23.32492,-12.92475 23.59958,-27.29102 0.21002,-10.98498 0.0401,-21.97711 0.0548,-32.96603 0.0179,-13.45926 4.94849,-19.28469 18.30603,-21.66187 6.12323,-1.0897 8.99378,-4.17259 8.81439,-9.46631 -0.16336,-4.82046 -3.56311,-8.04225 -9.18115,-8.70048 -11.62897,-1.36249 -17.87366,-8.24652 -17.92895,-19.90198 -0.0545,-11.4882 0.13165,-22.97932 -0.0594,-34.46465 -0.25391,-15.26705 -11.75638,-27.41052 -25.92615,-27.68698 -6.07159,-0.11845 -10.1897,3.06299 -10.6174,8.20242 -0.3985,4.7885 3.02988,8.65008 8.70697,9.80707 7.19846,1.46705 9.19562,3.79769 9.24789,11.21073 0.0705,9.98947 -0.33013,19.99658 0.14945,29.9635 0.29196,6.06699 1.03995,12.37163 3.0979,18.01736 1.86984,5.12984 5.78818,9.51297 8.98779,14.51332 -0.22314,0.27681 -0.68219,0.95212 -1.24396,1.52706 -6.41271,6.56311 -10.23019,14.2875 -10.40856,23.57631 -0.23642,12.30818 -0.35303,24.61865 -0.58277,36.92698 -0.12115,6.49055 -1.73132,8.5272 -8.62518,10.43909 M 157.68314,185.0454 c -3.49709,4.95535 -8.32966,7.41726 -14.32734,7.95529 -5.92199,0.53125 -9.15741,3.50038 -9.4729,8.35977 -0.3537,5.44821 2.43343,8.67261 8.42453,9.74626 13.7585,2.46564 18.68402,8.38499 18.68969,22.46509 0.004,10.83172 -0.13736,21.66586 0.044,32.4946 0.24844,14.83111 10.55957,25.78759 25.32174,27.22531 5.57433,0.54287 9.80101,-2.08826 10.68055,-6.64871 1.10998,-5.75534 -1.68293,-9.8053 -7.78078,-11.28278 -8.1483,-1.97431 -10.08379,-4.36237 -10.11569,-12.73596 -0.0413,-10.83159 -0.10741,-21.6644 0.01,-32.49481 0.0883,-8.15091 -2.42752,-15.3974 -7.08897,-21.9482 -1.51078,-2.12311 -3.34917,-4.01309 -4.98572,-5.94821 11.83406,-15.81502 12.05525,-16.48979 12.05527,-36.4281 0,-7.99883 -0.0209,-15.99771 0.006,-23.99645 0.0289,-8.67746 1.89548,-10.96625 10.45627,-12.96318 5.31989,-1.24094 8.37169,-5.17463 7.73645,-9.97199 -0.67183,-5.07362 -4.18336,-7.93011 -9.77127,-7.94852 -14.0473,-0.0463 -26.13684,11.88086 -26.48025,26.57284 -0.28031,11.99181 0.14323,24.00165 -0.22173,35.98897 -0.11168,3.66849 -1.79954,7.28898 -3.17953,11.55878 m 85.43139,69.15254 c 0.0152,0.83232 -0.0513,1.67563 0.0587,2.49524 0.81939,6.1054 4.39596,9.53094 9.68297,9.32089 5.1399,-0.20423 8.61647,-3.86182 8.84269,-10.18335 0.28571,-7.98323 0.15805,-15.9849 0.0642,-23.97693 -0.0803,-6.843 -3.91189,-11.46301 -9.27147,-11.48036 -5.35806,-0.0174 -9.2655,4.64456 -9.35356,11.40805 -0.0932,7.15944 -0.0226,14.32103 -0.0235,22.41646 m 21.3534,-77.57437 c 0.36801,-0.9229 0.84768,-1.818 1.08572,-2.77327 1.41846,-5.69228 -0.0555,-10.57062 -4.57223,-14.2947 -4.37589,-3.608 -9.40038,-4.15625 -14.43339,-1.66975 -5.18783,2.56299 -7.92933,6.82992 -7.6555,12.84503 0.26274,5.77104 3.62566,10.42157 9.16112,12.35797 5.98419,2.09335 10.86273,0.32411 16.41428,-6.46528 z"
   id="path15146"
   style="stroke:#000000;stroke-width:6;stroke-dasharray:none;stroke-opacity:1"
   sodipodi:nodetypes="ccssccccscscccssssssssssssssscsssccssssssssssscsssssssccssssssccsssssc" /><path
   fill="#eeaf4c"
   opacity="1"
   stroke="none"
   d="m 60.094276,358.1434 c 1.821736,-0.12506 3.64346,-0.35937 5.46521,-0.35962 127.650044,-0.0171 255.300104,-0.0161 382.950154,-0.009 1.4972,6e-5 2.99439,0.0972 4.92731,0.71591 0.43301,46.21317 0.33365,91.8598 0.52292,137.50528 0.0314,7.58054 -2.52442,13.15076 -8.95987,17.00412 -125.02091,0 -250.04179,0 -375.711678,-0.28809 -6.806446,-3.43963 -9.189601,-8.61148 -9.183067,-15.36526 0.04487,-46.40103 0.003,-92.80216 -0.01098,-139.20325 M 305.1048,478.62894 c 13.30462,-13.79328 10.83178,-31.37079 -5.87036,-40.85346 -5.63315,-3.1983 -11.6604,-5.72153 -17.19309,-9.07245 -5.85007,-3.54309 -7.99191,-8.68649 -6.60608,-13.78463 1.56027,-5.73987 6.86609,-10.03598 13.37543,-10.01722 5.03174,0.0145 10.06103,0.86264 15.8378,1.41104 1.37649,-2.70053 3.12839,-6.1376 4.84414,-9.50372 -6.39254,-3.92566 -16.9703,-5.72113 -25.35626,-4.62979 -11.43719,1.48837 -20.42242,9.14951 -22.82492,19.4613 -2.48437,10.66315 1.29883,19.56842 11.51682,26.48041 3.29428,2.22846 6.91147,3.97669 10.35922,5.98197 3.59094,2.0885 7.52222,3.79873 10.61206,6.47427 2.33569,2.02252 4.56909,5.11621 5.12683,8.05939 1.64527,8.68139 -3.71411,15.43521 -12.67435,15.15014 -7.81152,-0.24853 -15.56485,-2.32513 -23.88125,-3.6817 -0.30451,1.16642 -0.62418,3.28949 -1.41458,5.21985 -1.37598,3.36038 0.009,5.03873 2.91095,6.62363 11.78778,6.43908 30.38028,5.21936 41.23764,-3.31903 m -110.56671,-8.49146 c -1.83225,-0.70105 -3.66448,-1.40213 -5.74459,-2.19803 -2.04014,3.2298 -3.97419,6.29166 -6.19903,9.81381 11.37146,6.76908 23.20825,9.85801 36.00863,7.69489 14.40367,-2.43399 20.31108,-9.76251 20.34558,-24.40091 0.044,-18.6633 0.0115,-37.32684 0.0119,-55.99026 9e-5,-4.30298 2e-5,-8.60596 2e-5,-13.27207 -5.192,0 -9.92777,0 -15.17783,0 0,4.74429 1.1e-4,9.21213 -1e-5,13.67996 -4.9e-4,17.99689 0.0542,35.99399 -0.0241,53.99054 -0.0415,9.53089 -3.7666,13.57532 -13.33608,13.46497 -5.056,-0.0583 -10.09459,-1.62702 -15.88453,-2.7829 z"
   id="path15148"
   style="stroke:#000000;stroke-width:6;stroke-dasharray:none;stroke-opacity:1" /></svg>
